<svg width="152" height="24" viewBox="0 0 152 24" fill="none" xmlns="http://www.w3.org/2000/svg">
<g clip-path="url(#clip0)">
<path d="M13.6821 21.2841L13.6758 21.2871C13.6778 21.286 13.6799 21.2851 13.6821 21.2841Z" fill="#100F0D"/>
<path d="M7.19908 7.16395L9.94405 5.83005L1.93621 1.93901C1.04131 1.50419 0 2.15592 0 3.15097V17.2096C0 17.8311 0.424982 18.3718 1.02877 18.5188L6.44055 19.8359V8.37581C6.44055 7.85994 6.73507 7.38941 7.19908 7.16395Z" fill="#FBC53B"/>
<path d="M12.7803 21.3796L6.44141 19.8369V22.651C6.44141 23.6459 7.48271 24.2978 8.37769 23.8627L13.6774 21.2877C13.41 21.4155 13.0973 21.457 12.7803 21.3796Z" fill="#F9CC11"/>
<path d="M18.9491 1.45577L9.94336 5.83167L13.6862 7.65045C14.1502 7.8759 14.4447 8.34637 14.4447 8.86224V20.0712C14.4447 20.6153 14.1272 21.0698 13.6825 21.2852L20.1268 18.1538C20.5907 17.9284 20.8852 17.4577 20.8852 16.9418V2.66773C20.8852 1.67268 19.844 1.02095 18.9491 1.45577Z" fill="#F9CC11"/>
<path d="M14.4462 20.0699V8.86096C14.4462 8.34509 14.1517 7.87462 13.6878 7.64918L9.94491 5.8304L7.19994 7.16429C6.73593 7.38976 6.44141 7.86029 6.44141 8.37615V19.8363L12.7803 21.379C13.0973 21.4564 13.41 21.4149 13.6774 21.2871L13.6841 21.2839C14.1287 21.0685 14.4462 20.614 14.4462 20.0699Z" fill="#F09511"/>
<path d="M36.2919 8.76709L34.8494 9.53482C34.5739 9.68156 34.2348 9.59348 34.057 9.33679C33.717 8.8463 33.3199 8.60098 32.8655 8.60098C32.5878 8.60098 32.3504 8.69297 32.1532 8.87661C31.9558 9.06016 31.8573 9.2955 31.8573 9.58241C31.8573 10.0843 32.4399 10.5817 33.6052 11.0746C35.2093 11.7648 36.2891 12.4011 36.8451 12.9836C37.4008 13.5661 37.6785 14.3504 37.6785 15.3363C37.6785 16.5997 37.2124 17.6575 36.2805 18.5087C35.375 19.3155 34.2816 19.7188 33.0003 19.7188C31.0116 19.7188 29.5486 18.8404 28.6114 17.0837C28.4471 16.7763 28.5817 16.3915 28.8979 16.245L30.4157 15.5414C30.6946 15.4121 31.0285 15.5106 31.1908 15.7716C31.4177 16.1373 31.5995 16.382 31.7365 16.5056C32.1039 16.8464 32.5431 17.0165 33.0539 17.0165C34.0757 17.0165 34.5865 16.5508 34.5865 15.6185C34.5865 15.0807 34.1921 14.5788 33.4036 14.1127C33.0988 13.9604 32.794 13.8126 32.4893 13.6691C32.1847 13.5259 31.8753 13.378 31.5619 13.2254C30.6834 12.7951 30.0648 12.3652 29.7065 11.9351C29.2494 11.3884 29.0209 10.6846 29.0209 9.82422C29.0209 8.68611 29.4107 7.74533 30.1906 7.00128C30.9879 6.2574 31.9558 5.88528 33.0944 5.88528C34.5791 5.88528 35.7265 6.56439 36.5361 7.92235C36.7127 8.21861 36.5963 8.60496 36.2919 8.76709Z" fill="#2225B3"/>
<path d="M47.8357 11.0343C47.4145 9.42088 46.3973 8.61445 44.7842 8.61445C44.4166 8.61445 44.0715 8.67062 43.7491 8.7826C43.4263 8.89451 43.1328 9.05604 42.8683 9.26645C42.6041 9.47696 42.3776 9.73014 42.1896 10.0261C42.0012 10.3216 41.8579 10.6577 41.7594 11.0343H47.8357ZM49.6903 13.5079H41.5576C41.6382 14.5832 41.9879 15.4393 42.6061 16.0754C43.2247 16.7031 44.0178 17.0165 44.9856 17.0165C45.7386 17.0165 46.3614 16.8374 46.8544 16.4788C47.2797 16.164 47.757 15.6132 48.2865 14.8272C48.4145 14.6372 48.6685 14.5788 48.8685 14.6903L50.6588 15.6891C50.8845 15.8151 50.9515 16.1046 50.8125 16.3225C50.4929 16.8226 50.1594 17.2625 49.8119 17.6417C49.3727 18.1212 48.9022 18.5157 48.4004 18.8247C47.8983 19.1339 47.3563 19.3603 46.7737 19.5036C46.1909 19.6469 45.5592 19.7188 44.8781 19.7188C42.9245 19.7188 41.3561 19.0916 40.1728 17.8366C38.99 16.5729 38.3984 14.8971 38.3984 12.809C38.3984 10.7383 38.9718 9.06265 40.1192 7.78085C41.2755 6.51712 42.8081 5.88528 44.717 5.88528C46.6439 5.88528 48.1442 6.52085 49.2877 7.72711C50.3857 8.8854 50.8049 10.1413 50.9118 12.2136C50.9479 12.9155 50.3932 13.5079 49.6903 13.5079Z" fill="#2225B3"/>
<path d="M55.8979 0.612028V9.41814C55.8979 9.81283 56.3744 10.011 56.6541 9.73285L60.0298 6.37863C60.1129 6.29617 60.2254 6.24974 60.3424 6.24974H63.1222C63.5211 6.24974 63.7173 6.73508 63.4306 7.01232L58.9341 11.3603C58.7068 11.58 58.6844 11.9366 58.8822 12.1828L64.0562 18.6222C64.2895 18.9125 64.083 19.3438 63.7105 19.3438H60.9267C60.7904 19.3438 60.6616 19.281 60.5775 19.1736L56.6908 14.2126C56.5265 14.0031 56.2159 13.9842 56.0277 14.1726C55.9445 14.2558 55.8979 14.3685 55.8979 14.4863V18.9001C55.8979 19.145 55.6991 19.3438 55.4541 19.3438H53.3168C53.0718 19.3438 52.873 19.145 52.873 18.9001V0.612028C52.873 0.274298 53.1468 0.000564575 53.4845 0.000564575H55.2864C55.6241 0.000564575 55.8979 0.274298 55.8979 0.612028Z" fill="#2225B3"/>
<path d="M66.8244 12.7549C66.8244 14.0634 67.1739 15.0988 67.8729 15.8604C68.5898 16.6314 69.5352 17.0165 70.7095 17.0165C71.8928 17.0165 72.838 16.6359 73.5461 15.8739C74.2541 15.1122 74.6082 14.0948 74.6082 12.822C74.6082 11.5496 74.2541 10.5324 73.5461 9.77041C72.829 8.99979 71.8836 8.61445 70.7095 8.61445C69.5536 8.61445 68.617 8.99979 67.8998 9.77041C67.1827 10.5413 66.8244 11.5361 66.8244 12.7549ZM63.7324 12.7011C63.7324 10.8103 64.4091 9.20144 65.7624 7.87484C67.1155 6.54873 68.7647 5.88528 70.7095 5.88528C72.6633 5.88528 74.3213 6.55316 75.6836 7.88831C77.0279 9.22386 77.7004 10.8641 77.7004 12.809C77.7004 14.7717 77.0235 16.4161 75.6702 17.7426C74.3077 19.0599 72.6364 19.7188 70.6559 19.7188C68.6931 19.7188 67.0483 19.0464 65.7221 17.7022C64.3955 16.3758 63.7324 14.709 63.7324 12.7011Z" fill="#2225B3"/>
<path d="M82.5482 0.612028V18.7322C82.5482 19.07 82.2743 19.3438 81.9366 19.3438H80.1347C79.7972 19.3438 79.5234 19.07 79.5234 18.7322V0.612028C79.5234 0.274298 79.7972 0.000564575 80.1347 0.000564575H81.9366C82.2743 0.000564575 82.5482 0.274298 82.5482 0.612028Z" fill="#2225B3"/>
<path d="M87.4766 12.7549C87.4766 14.0096 87.8127 15.0314 88.4848 15.8202C89.1748 16.618 90.044 17.0165 91.0929 17.0165C92.2132 17.0165 93.1181 16.6314 93.8083 15.8604C94.4983 15.0628 94.8436 14.0504 94.8436 12.822C94.8436 11.5944 94.4983 10.5817 93.8083 9.78387C93.1181 9.00432 92.2221 8.61445 91.1198 8.61445C90.0799 8.61445 89.2109 9.00875 88.5117 9.79727C87.8215 10.5951 87.4766 11.5809 87.4766 12.7549ZM95.2669 6.24835H97.0822C97.4199 6.24835 97.6936 6.52218 97.6936 6.85985V18.7309C97.6936 19.0686 97.4199 19.3424 97.0822 19.3424H95.2669C94.9292 19.3424 94.6554 19.0686 94.6554 18.7309V17.9709C93.4096 19.1364 92.0696 19.7188 90.636 19.7188C88.8255 19.7188 87.3286 19.0647 86.1456 17.756C84.9713 16.4206 84.3848 14.7538 84.3848 12.7549C84.3848 10.7921 84.9713 9.15664 86.1456 7.84806C87.3197 6.53979 88.7892 5.88528 90.555 5.88528C92.0786 5.88528 93.4455 6.51291 94.6554 7.76746V6.85985C94.6554 6.52218 94.9292 6.24835 95.2669 6.24835Z" fill="#2225B3"/>
<path d="M100.746 0.000564575H102.548C102.885 0.000564575 103.159 0.274298 103.159 0.612028V7.33865C104.235 6.37069 105.422 5.88667 106.722 5.88667C108.201 5.88667 109.384 6.36617 110.271 7.32517C111.024 8.15877 111.4 9.48971 111.4 11.3178V18.7322C111.4 19.07 111.127 19.3438 110.789 19.3438H108.987C108.649 19.3438 108.376 19.07 108.376 18.7322V11.6002C108.376 10.5517 108.19 9.7922 107.818 9.32159C107.446 8.85112 106.847 8.61584 106.023 8.61584C104.965 8.61584 104.221 8.94301 103.791 9.5972C103.37 10.2606 103.159 11.3987 103.159 13.0118V18.7322C103.159 19.07 102.885 19.3438 102.548 19.3438H100.746C100.409 19.3438 100.135 19.07 100.135 18.7322V0.612028C100.135 0.274298 100.409 0.000564575 100.746 0.000564575Z" fill="#2225B3"/>
<path d="M117.097 17.4751C117.097 18.5072 116.26 19.3438 115.228 19.3438C114.196 19.3438 113.359 18.5072 113.359 17.4751C113.359 16.443 114.196 15.6064 115.228 15.6064C116.26 15.6064 117.097 16.443 117.097 17.4751Z" fill="#2225B3"/>
<path d="M138.386 10.624C138.31 8.41478 137.348 7.01344 135.729 6.48481C135.247 6.32789 134.706 6.24697 134.113 6.24697C132.386 6.24697 131.061 6.95808 129.953 8.25778C129.29 6.97879 128.039 6.24697 126.382 6.24697C124.562 6.24697 123.475 7.21664 122.649 8.28318V6.94647C122.649 6.6926 122.443 6.48481 122.187 6.48481H121.697C120.239 6.48481 119.057 7.66715 119.057 9.12581V18.6927C119.057 18.9475 119.263 19.1543 119.518 19.1543H122.187C122.442 19.1543 122.649 18.9475 122.649 18.6927V12.0832C122.649 10.3817 123.475 9.50906 124.823 9.50906C126.169 9.50906 126.926 10.3817 126.926 12.0832V18.6927C126.926 18.9475 127.133 19.1543 127.388 19.1543H130.057C130.312 19.1543 130.519 18.9475 130.519 18.6927V12.0832C130.519 10.3817 131.347 9.50906 132.693 9.50906C134.039 9.50906 134.796 10.3817 134.796 12.0832V18.6927C134.796 18.9475 135.003 19.1543 135.258 19.1543H137.929C138.184 19.1543 138.391 18.9475 138.391 18.6927V10.9057C138.391 10.811 138.391 10.7164 138.386 10.624Z" fill="#2225B3"/>
<path d="M151.489 6.48413H148.82C148.564 6.48413 148.358 6.69192 148.358 6.94579V13.5507C148.358 15.2522 147.483 16.1271 146.114 16.1271C144.773 16.1271 143.97 15.2889 143.942 13.6523C143.937 13.62 143.937 13.5876 143.937 13.5507V6.94579C143.937 6.69192 143.73 6.48413 143.476 6.48413H140.809C140.555 6.48413 140.348 6.69192 140.348 6.94579V14.6842C140.348 16.9789 141.336 18.581 143.093 19.1536C143.556 19.3059 144.076 19.3867 144.648 19.3867C146.47 19.3867 147.532 18.4218 148.358 17.3553V18.692C148.358 18.9459 148.566 19.1536 148.82 19.1536H149.309C150.768 19.1536 151.95 17.9717 151.95 16.5126V6.94579C151.95 6.69192 151.745 6.48413 151.489 6.48413Z" fill="#2225B3"/>
</g>
<defs>
<clipPath id="clip0">
<rect width="151.951" height="24" fill="white"/>
</clipPath>
</defs>
</svg>
